<svg xmlns="http://www.w3.org/2000/svg" width="130" height="41" fill="none"><path fill="#A6A6A6" d="M118.625 0H9.535c-.367 0-.729 0-1.095.002-.306.002-.61.008-.919.013-.666.016-1.339.057-2.004.176a6.444 6.444 0 0 0-5.323 5.33c-.12.663-.162 1.333-.179 2.002-.009.307-.01.615-.015.921v23.115c.005.311.006.611.015.922.017.67.059 1.34.179 2.002.117.67.314 1.298.625 1.904.303.596.7 1.145 1.178 1.614.473.478 1.02.875 1.619 1.179.609.312 1.231.51 1.901.631.665.119 1.338.158 2.004.177.309.007.613.011.919.011L9.535 40h109.091c.359 0 .725 0 1.084-.002.305 0 .617-.004.922-.011.67-.019 1.342-.058 2-.177a6.783 6.783 0 0 0 1.908-.631A6.254 6.254 0 0 0 126.157 38a6.435 6.435 0 0 0 1.182-1.614 6.579 6.579 0 0 0 .619-1.904c.123-.662.162-1.332.186-2.002.004-.311.004-.611.004-.922.008-.363.008-.725.008-1.094V9.536c0-.366 0-.729-.008-1.092 0-.307 0-.614-.004-.921-.023-.67-.062-1.34-.186-2.002a6.592 6.592 0 0 0-.619-1.903 6.457 6.457 0 0 0-2.799-2.8 6.743 6.743 0 0 0-1.908-.627c-.658-.119-1.33-.16-2-.177-.305-.005-.617-.011-.922-.013L118.625 0Z"/><path fill="#000" d="M8.445 39.125c-.305 0-.602-.004-.904-.011-.559-.016-1.222-.047-1.869-.163a5.871 5.871 0 0 1-1.657-.548 5.41 5.41 0 0 1-1.397-1.017 5.347 5.347 0 0 1-1.02-1.396 5.722 5.722 0 0 1-.544-1.657c-.122-.673-.153-1.355-.166-1.875-.006-.211-.015-.913-.015-.913V8.444s.009-.691.015-.895c.013-.524.044-1.206.166-1.872a5.698 5.698 0 0 1 .543-1.661 5.557 5.557 0 0 1 2.417-2.42 5.818 5.818 0 0 1 1.653-.544C6.341.931 7.023.9 7.543.887l.902-.012h111.259l.913.013c.513.013 1.195.043 1.858.163a5.931 5.931 0 0 1 1.671.548c.513.263.982.605 1.392 1.016.409.406.752.878 1.023 1.404.258.511.434 1.053.535 1.649.116.631.152 1.279.174 1.887.003.283.003.587.003.89.008.375.008.732.008 1.092v20.929c0 .363 0 .718-.008 1.075 0 .325 0 .623-.004.93-.021.589-.057 1.236-.171 1.854a5.751 5.751 0 0 1-.54 1.67c-.27.52-.612.989-1.016 1.386a5.427 5.427 0 0 1-1.399 1.023 5.873 5.873 0 0 1-1.668.55c-.641.116-1.304.147-1.869.163-.293.007-.6.011-.897.011l-1.084.002-110.18-.005Z"/><path fill="url(#a)" d="M32.713 15.29c0-.301 0-.601-.002-.902-.002-.253-.004-.506-.011-.759a11.058 11.058 0 0 0-.145-1.653 5.563 5.563 0 0 0-.518-1.572 5.296 5.296 0 0 0-2.31-2.31 5.599 5.599 0 0 0-1.571-.518 10.916 10.916 0 0 0-1.653-.145c-.253-.007-.506-.01-.76-.011-.3-.002-.6-.002-.901-.002H15.42c-.301 0-.601 0-.902.002-.253.002-.506.004-.76.011-.55.015-1.107.047-1.652.145a5.567 5.567 0 0 0-1.571.518 5.296 5.296 0 0 0-2.311 2.31 5.595 5.595 0 0 0-.518 1.572c-.098.545-.13 1.101-.145 1.653-.007.253-.01.506-.011.759-.002.301-.002.601-.002.902v9.421c0 .301 0 .601.002.902.002.253.004.506.01.759.016.551.048 1.107.146 1.653.099.554.262 1.069.518 1.572a5.296 5.296 0 0 0 2.31 2.31 5.599 5.599 0 0 0 1.57.518c.546.098 1.103.131 1.654.145.253.007.506.01.759.011.3.002.6.002.902.002h9.42c.302 0 .602 0 .903-.002.253-.002.506-.004.759-.011a11.046 11.046 0 0 0 1.653-.145 5.567 5.567 0 0 0 1.57-.518 5.296 5.296 0 0 0 2.31-2.31 5.595 5.595 0 0 0 .519-1.572c.098-.545.13-1.101.145-1.653.007-.253.01-.506.01-.759.003-.301.003-.601.003-.902V15.29Z"/><path fill="#fff" d="M20.122 16.569a1.883 1.883 0 1 1 0 3.765 1.883 1.883 0 0 1 0-3.765Zm5.42 2.543c0 1.858-.94 3.5-2.37 4.476a.106.106 0 0 1-.166-.095c.02-.33.026-.623.009-.924a.332.332 0 0 1 .106-.263 4.369 4.369 0 0 0 1.386-3.195 4.389 4.389 0 0 0-4.558-4.38 4.396 4.396 0 0 0-4.21 4.263 4.374 4.374 0 0 0 1.384 3.313.334.334 0 0 1 .105.263c-.017.301-.011.593.009.924a.107.107 0 0 1-.166.095 5.415 5.415 0 0 1-2.37-4.547c.037-2.869 2.338-5.233 5.205-5.344a5.425 5.425 0 0 1 5.636 5.414Zm-5.443-8.089c4.472-.013 8.114 3.621 8.114 8.088 0 3.522-2.264 6.525-5.413 7.632a.108.108 0 0 1-.143-.118c.042-.277.08-.555.117-.828a.278.278 0 0 1 .163-.219 7.063 7.063 0 0 0 4.24-6.467c0-3.909-3.196-7.085-7.113-7.053-3.832.031-6.96 3.154-6.997 6.984a7.063 7.063 0 0 0 4.24 6.536.279.279 0 0 1 .164.219c.036.274.075.552.117.829a.108.108 0 0 1-.143.118c-3.18-1.118-5.457-4.168-5.413-7.735.054-4.401 3.663-7.973 8.067-7.986Zm.023 10.072c.716 0 1.322.233 1.668.598.18.19.275.385.305.662.058.537.025 1-.038 1.74-.06.705-.174 1.645-.323 2.602-.106.681-.192 1.049-.27 1.312-.127.427-.601.8-1.343.8s-1.216-.373-1.343-.8c-.078-.263-.164-.631-.27-1.312a39.796 39.796 0 0 1-.323-2.602c-.063-.74-.096-1.203-.038-1.74.03-.277.125-.472.305-.662.348-.365.954-.598 1.67-.598ZM56.68 18.764c2.413 0 4.093 1.663 4.093 4.084 0 2.43-1.715 4.102-4.153 4.102h-2.67v4.248h-1.93V18.764h4.66Zm-2.73 6.566h2.214c1.68 0 2.637-.905 2.637-2.473 0-1.568-.956-2.464-2.628-2.464H53.95v4.937ZM61.059 26.665c0-2.912 1.715-4.696 4.3-4.696s4.3 1.784 4.3 4.696c0 2.921-1.706 4.705-4.3 4.705s-4.3-1.784-4.3-4.705Zm6.703 0c0-2.008-.948-3.162-2.404-3.162s-2.404 1.155-2.404 3.162c0 2.016.948 3.171 2.404 3.171 1.465 0 2.404-1.154 2.404-3.171ZM70.693 26.665c0-2.861 1.516-4.679 3.791-4.679 1.301 0 2.335.655 2.843 1.654h.035v-4.877h1.87v12.434h-1.809v-1.542h-.035c-.534 1.034-1.568 1.697-2.886 1.697-2.292.001-3.809-1.826-3.809-4.687Zm1.905 0c0 1.913.922 3.111 2.396 3.111 1.43 0 2.387-1.215 2.387-3.111 0-1.878-.956-3.111-2.387-3.111-1.474.001-2.396 1.207-2.396 3.111ZM86.933 25.252c-.19-.965-.914-1.732-2.129-1.732-1.439 0-2.386 1.198-2.386 3.145 0 1.99.956 3.145 2.403 3.145 1.147 0 1.897-.629 2.112-1.68h1.791c-.198 1.93-1.74 3.24-3.92 3.24-2.594 0-4.282-1.775-4.282-4.705 0-2.878 1.688-4.696 4.264-4.696 2.335 0 3.757 1.499 3.921 3.283h-1.774ZM89.682 28.621c0-1.586 1.215-2.559 3.369-2.68l2.482-.146v-.698c0-1.008-.681-1.611-1.818-1.611-1.077 0-1.75.517-1.913 1.327h-1.758c.103-1.637 1.499-2.844 3.74-2.844 2.197 0 3.602 1.163 3.602 2.981v6.247H95.6v-1.491h-.043c-.526 1.008-1.672 1.646-2.861 1.646-1.774.001-3.015-1.102-3.015-2.731Zm5.85-.818v-.715l-2.231.137c-1.112.078-1.741.569-1.741 1.344 0 .793.655 1.31 1.654 1.31 1.302 0 2.319-.896 2.319-2.076ZM102.416 21.969c2.111 0 3.481 1.172 3.542 2.844h-1.749c-.103-.879-.75-1.43-1.792-1.43-1.008 0-1.68.491-1.68 1.215 0 .569.414.956 1.396 1.18l1.473.336c1.853.431 2.559 1.155 2.559 2.464 0 1.654-1.542 2.792-3.679 2.792-2.266 0-3.629-1.112-3.8-2.835h1.844c.172.948.819 1.413 1.956 1.413 1.12 0 1.809-.465 1.809-1.206 0-.586-.336-.931-1.327-1.155l-1.473-.345c-1.723-.396-2.578-1.224-2.578-2.542 0-1.619 1.414-2.731 3.499-2.731ZM110.061 19.987v2.146h1.723v1.474h-1.723v4.998c0 .784.345 1.137 1.103 1.137.189 0 .491-.017.612-.043v1.473c-.207.052-.62.086-1.034.086-1.835 0-2.551-.698-2.551-2.447v-5.204h-1.318v-1.474h1.318v-2.146h1.87ZM116.591 21.969c2.111 0 3.481 1.172 3.542 2.844h-1.749c-.103-.879-.75-1.43-1.792-1.43-1.008 0-1.68.491-1.68 1.215 0 .569.414.956 1.396 1.18l1.473.336c1.853.431 2.559 1.155 2.559 2.464 0 1.654-1.542 2.792-3.679 2.792-2.266 0-3.628-1.112-3.8-2.835h1.844c.172.948.819 1.413 1.956 1.413 1.12 0 1.809-.465 1.809-1.206 0-.586-.336-.931-1.327-1.155l-1.473-.345c-1.723-.396-2.577-1.224-2.577-2.542 0-1.619 1.413-2.731 3.498-2.731ZM46.79 21.082c-1.109-.082-2.05.62-2.576.62-.533 0-1.354-.602-2.225-.585-1.144.017-2.198.665-2.787 1.689-1.188 2.062-.303 5.117.854 6.79.566.817 1.241 1.739 2.128 1.705.853-.034 1.176-.552 2.208-.552 1.031 0 1.322.552 2.224.535.92-.017 1.5-.834 2.062-1.656.65-.949.917-1.868.933-1.916-.02-.008-1.79-.687-1.808-2.726-.016-1.705 1.392-2.525 1.456-2.564-.8-1.178-2.034-1.307-2.469-1.34ZM46.107 19.978c.471-.569.788-1.362.701-2.151-.678.027-1.498.452-1.985 1.021-.436.504-.818 1.311-.714 2.084.756.058 1.527-.384 1.998-.954ZM39.39 8.773h.93v5.188h2.807v.802H39.39v-5.99ZM44.219 8.889a.564.564 0 1 1 1.128 0 .565.565 0 0 1-1.128 0Zm.112 1.365h.896v4.508h-.896v-4.508ZM46.44 13.583v-.005h.9l.004.005c.112.34.44.568.977.568.556 0 .942-.253.942-.623v-.008c0-.282-.212-.474-.735-.594l-.718-.166c-.852-.195-1.245-.581-1.245-1.241v-.004c0-.784.73-1.349 1.75-1.349 1.03 0 1.69.515 1.769 1.249v.004h-.86v-.008c-.086-.315-.405-.552-.912-.552-.494 0-.851.244-.851.605v.009c0 .282.208.456.714.576l.714.162c.866.203 1.281.573 1.281 1.225v.008c0 .835-.797 1.403-1.867 1.403-1.087.002-1.775-.509-1.863-1.264ZM51.633 13.575v-2.61h-.705v-.71h.705V9.118h.917v1.137h.967v.71h-.967v2.395c0 .485.183.685.626.685.137 0 .216-.004.34-.017v.719a3 3 0 0 1-.485.045c-.991-.002-1.398-.35-1.398-1.217ZM54.416 12.521v-.005c0-1.406.813-2.349 2.071-2.349 1.257 0 2.029.909 2.029 2.262v.315h-3.195c.017.863.49 1.365 1.233 1.365.577 0 .921-.286 1.029-.519l.017-.033.867-.004-.008.037c-.149.594-.772 1.258-1.926 1.258-1.32.001-2.117-.899-2.117-2.327Zm.917-.42h2.291c-.07-.805-.522-1.195-1.133-1.195-.614 0-1.079.42-1.158 1.195ZM59.705 10.254h.901v.685h.066c.22-.481.651-.771 1.307-.771 1.008 0 1.565.602 1.565 1.677v2.918h-.896v-2.706c0-.747-.312-1.117-.972-1.117-.66 0-1.07.453-1.07 1.179v2.645h-.9v-4.51ZM67.135 12.512v-.008c0-1.449.813-2.337 2.133-2.337 1.316 0 2.129.884 2.129 2.337v.008c0 1.453-.81 2.337-2.13 2.337-1.323 0-2.132-.884-2.132-2.337Zm3.345 0v-.008c0-1.001-.44-1.586-1.212-1.586-.776 0-1.212.585-1.212 1.586v.008c0 1 .436 1.586 1.212 1.586.772 0 1.212-.59 1.212-1.586ZM72.586 10.254h.9v.685h.066c.22-.481.652-.771 1.308-.771 1.009 0 1.564.602 1.564 1.677v2.918h-.896v-2.706c0-.747-.311-1.117-.971-1.117-.66 0-1.071.453-1.071 1.179v2.645h-.9v-4.51Z"/><defs><linearGradient id="a" x1="20.131" x2="20.131" y1="7.418" y2="32.582" gradientUnits="userSpaceOnUse"><stop stop-color="#D56EFC"/><stop offset="1" stop-color="#832BC1"/></linearGradient></defs></svg>