<svg width="64" height="64" viewBox="0 0 64 64" fill="none" xmlns="http://www.w3.org/2000/svg">
<rect width="64" height="64" rx="32" fill="#161616"/>
<path d="M20.622 25.3128C20.2054 25.3128 19.7887 25.0212 19.5388 25.0212C19.3096 25.0212 19.268 25.167 19.1638 25.167L19.3721 25.3337C19.268 25.5211 19.1221 25.7295 18.9763 25.7295C19.1846 26.0211 19.0388 26.3544 18.8721 26.7711C18.7055 26.9169 18.4763 27.021 18.393 27.2085C18.6638 27.2085 18.5805 27.3335 18.4972 27.4168C18.2889 27.5835 18.1639 27.7085 18.393 28.1043L18.7472 27.6668L18.7263 28.3126H18.5805C18.5388 28.4168 18.4972 28.5418 18.4972 28.6876C19.4138 28.271 20.1637 28.0001 20.372 28.2085C20.4762 27.9376 20.8512 27.7502 21.3095 27.5002C21.5178 27.8751 21.6011 27.4585 21.8094 27.4585C21.9761 27.4585 22.2053 27.521 22.2886 27.1669C23.1844 26.7502 24.1843 26.2503 24.9759 25.2087C23.1219 24.5004 22.3302 25.3128 20.622 25.3128ZM17.7472 21.4172L18.8096 20.5631C19.2055 19.459 19.9137 17.855 20.497 16.9801H20.872C21.7053 16.9801 21.9969 17.6675 22.1219 17.9592H21.8303C21.8303 18.2091 21.9344 18.5424 22.0803 18.5424C22.6636 18.5424 23.1427 18.0216 23.8093 17.7925C24.2051 17.6675 24.8301 17.5633 25.0384 17.5633C25.4967 17.5633 26.0175 18.7924 26.205 19.3549C25.9967 19.3757 25.83 19.5215 25.9967 19.7299C25.6842 20.2298 25.3717 21.1048 24.9759 21.0631C24.7051 21.0423 24.0176 21.8131 23.7885 21.7922C23.3927 21.7506 23.1219 22.188 22.7052 22.5213L22.5594 22.4172C22.3302 22.5838 21.8511 22.8963 21.6636 23.1463L21.7469 23.2088C22.4136 23.1671 23.3718 23.063 24.1218 23.063C25.1426 23.063 25.955 23.6463 26.6008 24.1254C26.9133 24.6254 27.3091 25.7503 27.5174 26.4169C27.3716 26.5002 27.2466 26.3961 27.1008 26.4586C26.8091 26.896 24.9967 28.2918 24.8926 28.2918C24.4343 28.271 23.8926 28.4168 23.4343 28.6459L23.5177 28.9584C23.0385 29.3959 22.2677 29.5625 21.9761 29.2709C21.8719 29.375 21.8094 29.6042 21.7469 29.7708C19.5179 30.9791 17.893 31.3749 18.1222 31.8332C17.9764 31.9582 17.8305 31.9999 17.6847 31.9999C17.2264 31.9999 16.8723 31.3749 16.2682 31.2916C16.3098 31.0624 16.3098 30.8124 16.0598 30.9374C16.1223 30.6458 16.0598 30.1875 15.9557 29.8958C16.3098 29.7292 16.7056 29.5625 17.0598 29.375C16.6848 29.2709 16.4348 28.8959 16.1432 28.7709L16.3306 28.4584C16.1223 28.2918 16.0598 28.146 15.9765 27.9585L18.1014 22.2714C17.7681 22.1047 17.7056 21.7922 17.7472 21.4172ZM23.4552 24.5837L23.0385 24.5212L23.0177 24.6879C23.226 24.7295 23.4343 24.7087 23.4552 24.5837ZM24.8092 28.146L24.7676 27.9585L24.4343 28.0626C24.4134 28.2085 24.7259 28.1668 24.8092 28.146ZM19.5388 30.3958L19.1638 30.375C19.2055 30.4166 19.2471 30.4583 19.268 30.4791C19.3096 30.5 19.3513 30.5 19.3721 30.5C19.4138 30.5 19.4763 30.4583 19.5388 30.3958ZM23.0177 29.0417C23.1219 29.0417 23.226 28.9584 23.3093 28.7917C23.1219 28.7709 22.8094 28.8751 22.7052 28.9584C22.8094 29.0209 22.9135 29.0417 23.0177 29.0417ZM18.7888 26.2711H18.5597C18.5597 26.3961 18.4972 26.5627 18.4138 26.6461L18.4972 26.7919C18.6638 26.6461 18.7888 26.4377 18.7888 26.2711ZM20.2054 30.0833C19.9971 30.1667 19.7887 30.1042 19.6846 30.0833C19.6846 30.1875 19.8096 30.3541 20.0387 30.3541C20.2679 30.3541 20.3095 30.0833 20.2054 30.0833ZM18.2889 28.2501C18.1639 28.1876 18.0805 28.271 17.9764 28.3959L18.1222 28.4793L18.2889 28.2501ZM19.2263 26.6461L18.893 27.3335C18.8305 27.2919 18.8096 27.2502 18.8513 27.1669C18.8721 27.0002 19.1013 26.7502 19.2263 26.6461ZM24.3301 28.6251L23.726 28.8959C23.726 28.6876 23.8718 28.5626 24.1218 28.5626C24.2051 28.5626 24.2676 28.5834 24.3301 28.6251ZM26.205 26.6669L26.3508 26.8335L26.7466 26.5002C26.6424 26.3544 26.3508 26.5836 26.205 26.6669ZM19.6221 25.667L19.268 26.4586C19.1638 26.4169 19.3513 25.8336 19.4971 25.5628L19.6221 25.667ZM39.0002 25.9378C38.6252 25.9794 38.2294 26.0628 37.8752 26.1044C37.7086 26.4586 37.7711 27.3752 37.3336 27.7918C37.6253 27.9585 37.4586 28.4793 37.1878 28.7293C37.3128 29.0417 37.3961 29.2709 36.9586 29.8542C36.9378 29.9375 37.1461 29.8333 37.1878 29.7917C37.1461 30.5 36.9795 31.0624 36.7712 31.6874C36.1254 31.6874 35.5421 31.0624 35.2088 31.1874C35.2296 30.7708 35.1671 30.6041 34.8755 30.6041L34.8963 30.3125C35.0004 30.3125 35.0838 30.25 35.1046 30.1042C35.0004 30.1042 34.9171 30.0417 34.9171 29.8958C34.9588 29.4167 35.2088 28.8126 35.3338 28.1876C35.4796 28.1876 35.4796 28.4584 35.4587 28.7709C35.6046 28.7709 35.8337 27.9168 35.8754 27.4377L35.6254 27.3335C35.6046 27.6668 35.6046 28.1251 35.3546 28.021C35.4171 27.7293 35.4796 27.0002 35.5421 26.7502L35.8962 27.1877C35.8754 26.9377 35.9795 26.8752 35.9379 26.5627C34.7505 26.5211 31.6048 28.2085 30.6674 28.8542L30.5632 29.1251L30.6466 29.375C30.2924 30.1042 29.98 30.9583 29.6466 31.3957L28.3342 30.8333C28.2717 30.1875 27.376 29.9167 27.6051 29.375H27.2718C27.7301 26.2294 31.209 22.8547 33.1672 20.2298C34.1463 18.9383 35.1254 18.0633 35.9379 17.4175C36.0837 17.2925 36.667 17.5008 36.7087 17.105C36.9795 17.1884 37.5628 17.4384 37.8752 17.6883L37.5003 17.8133C37.4794 18.1675 38.0002 17.7717 38.1044 17.855C38.8752 18.5216 38.4377 19.6465 38.8335 20.2507C38.8543 20.3548 38.8127 22.1464 38.5002 22.3339C38.5419 22.3755 38.5627 22.3755 38.6252 22.4172C38.5002 22.8755 38.3336 23.4796 38.2919 24.0629C38.2711 24.3129 39.0627 25.0212 39.0002 25.9378ZM37.3128 19.9798L37.2503 19.7715C36.8545 19.7924 35.8962 20.9589 35.0004 22.1464L34.8963 22.0422C34.9588 21.8756 35.0213 21.7506 34.9379 21.6672C34.6046 22.0422 34.4588 22.2297 34.6463 22.6255C34.3338 23.0421 34.0422 23.4171 33.7714 23.7504C33.3964 24.2296 32.8339 25.1253 32.3548 25.8128C32.7714 25.5628 33.0839 25.1253 33.9172 24.7712C34.6463 24.4587 35.0838 24.3754 35.8337 24.1671C35.8962 23.6254 36.1045 23.2296 36.1879 22.938L36.542 23.2505C36.792 22.6047 37.0836 20.9173 37.3128 19.9798ZM36.3129 23.8962H36.0837C36.0004 24.1462 36.1462 24.1462 36.292 24.1254L36.3129 23.8962ZM36.292 23.7713L36.2712 23.5629L36.1879 23.5421L36.1045 23.7713H36.292ZM35.5629 28.8542L35.4379 28.9167L35.3546 29.1876H35.4796L35.5629 28.8542ZM32.6256 27.3127C32.3548 27.1044 31.6673 27.5627 31.2715 27.771C31.1674 27.9168 31.1257 28.0001 31.0424 28.146L32.6256 27.3127ZM32.8756 27.1877C33.0631 27.0835 33.3756 26.9585 33.6047 26.8127V26.7919C33.1464 26.8127 32.9589 26.8544 32.8756 27.1877ZM37.042 20.3548L36.8753 21.0006H36.6878L36.8545 20.4381L37.042 20.3548ZM31.4798 27.396C31.5632 27.3543 32.0423 27.1877 32.1673 26.896C32.0006 26.9585 31.8757 26.9794 31.7298 27.0419L31.4798 27.396ZM53.8187 22.1464C53.4645 22.688 52.9646 23.4796 52.5063 23.9171C52.3604 24.0629 52.1104 24.1671 51.9438 24.1462L52.2563 23.8129C52.1313 23.7713 51.923 23.7921 51.798 23.9171C51.673 24.0421 51.3397 24.3129 50.923 24.6462L51.298 24.7295C49.0273 26.6877 46.2358 28.4168 43.8193 29.4792L43.6319 30.625C43.236 30.4166 42.9236 30.625 42.4861 30.625C41.2154 30.625 40.7987 29.2292 40.3404 28.6251C40.4237 28.3959 40.4862 28.1251 40.5071 27.8335L41.0279 27.6043C41.3195 27.4585 41.5278 27.3335 41.6737 26.9794C42.007 26.2086 42.1528 25.542 42.4028 24.6254L42.3194 24.3129C42.6111 23.3754 43.2569 22.6672 43.2985 21.8547C43.3194 21.2714 42.5486 20.8965 42.5694 20.3757C42.5903 19.834 43.611 19.5632 44.1527 19.2716L44.361 19.4174C45.3401 18.355 45.4026 16.2093 46.5067 16.2093C46.6941 16.2093 47.4441 17.4384 47.5483 17.7092C47.6316 18.0425 47.4441 18.4383 47.3608 18.8758C48.0691 18.8758 48.8398 18.6674 49.9023 18.8133C49.6939 19.2091 50.3189 19.1049 50.4439 18.8133C50.6522 18.9799 51.2355 18.9174 51.6938 19.0632C53.6103 19.6465 53.7145 21.2506 53.8187 22.1464ZM52.6104 23.4171L52.3396 23.3546L52.1729 23.5421L52.4438 23.6046L52.6104 23.4171ZM51.6938 20.709C48.1732 20.709 46.8816 21.8339 45.7567 22.188L45.7359 22.8338C45.6526 22.938 45.4859 23.0005 45.3609 23.1463V23.1671C45.6942 22.8963 45.6526 23.8338 45.4651 23.8338C45.3609 23.8129 45.2776 23.7713 45.1942 23.7088V23.7296C45.2776 23.8546 45.3192 24.0004 45.3401 24.1671C45.3192 24.6462 44.9026 25.2295 44.7984 26.0211C45.5484 25.5628 47.2358 24.8962 48.2774 24.0004C48.3607 24.0837 48.444 24.0837 48.5899 24.1254L48.4649 23.8338L48.6523 23.7088C48.7357 23.8546 48.819 23.8754 48.8607 23.8754C49.069 23.8754 49.4648 23.5421 50.1939 22.688C50.7355 22.8755 51.8188 21.4797 51.6938 20.709ZM50.6105 25.042L50.4231 24.9795L49.7356 25.3545C49.8606 25.4378 50.0273 25.4795 50.1731 25.3545L50.6105 25.042ZM49.8398 25.6253V25.6045C49.4648 25.6045 49.1315 25.8128 48.7148 26.0836C48.2565 26.3752 47.5274 26.7919 46.8608 27.2085C46.84 27.3335 46.7775 27.4793 46.6317 27.5627C46.4858 27.4168 46.2567 27.4793 46.0275 27.6877C46.1525 27.6877 46.3608 27.7502 46.5067 27.8335C47.6941 27.1044 48.8815 26.2294 49.8398 25.6253ZM44.7984 28.6668V28.6876L45.8609 28.1668C45.7775 28.1251 45.715 27.9376 45.8192 27.8126V27.7918C45.5067 27.9585 44.9859 28.4376 44.7984 28.6668ZM44.5485 28.5834L43.9027 28.9376L43.861 29.1459L44.4443 28.8334L44.5485 28.5834Z" fill="white"/>
<path d="M30.8599 35.3609C30.0058 35.5693 28.9851 35.9859 28.2559 36.5067C27.6518 36.9442 27.1935 37.4441 26.9435 37.6733L26.8185 37.465C26.5894 37.8399 25.7978 38.4649 25.2145 38.9857C25.1937 39.0898 25.1312 39.319 25.0687 39.4232C24.6937 39.819 22.6313 42.1938 22.6313 43.2146C22.6313 43.4646 22.7355 43.6104 22.9646 43.6104C23.7146 43.6104 25.4436 43.1104 26.6936 42.9229C26.9852 42.8813 27.2144 43.0062 27.3185 43.1312C26.3186 43.3396 24.902 43.5895 24.6729 44.0062C25.0687 44.2562 25.7561 44.0895 26.0686 43.777C27.1727 43.5687 28.5684 43.2771 29.6309 43.1312L29.9642 43.2146L30.4641 43.1521L30.6933 43.2979L29.61 43.4646C29.3392 43.5062 29.0476 43.5895 29.235 43.8604L29.3809 44.0687C29.1934 44.152 26.881 44.8395 25.5061 45.2769C25.277 45.3603 25.1312 45.5686 25.2562 45.7144C24.8187 45.8186 24.1521 46.006 23.6729 46.006C23.4438 46.006 23.2563 45.6727 23.048 45.6727C22.548 45.6727 22.423 45.1519 21.7564 45.2353C21.3814 44.8811 20.5898 43.5479 20.4231 43.2354C20.319 43.0687 20.2773 42.7563 20.2773 42.5271V41.9647C20.6106 41.673 20.6315 41.2355 20.6315 40.7981L20.8398 40.9231C20.9856 40.6939 20.819 40.4023 20.9231 40.1731C21.3606 39.2982 22.1939 37.9024 22.4647 37.9024C22.7355 37.9024 22.3397 38.2149 22.6313 38.2149C22.8605 38.2149 23.298 37.1316 23.5271 37.1316H23.7771C23.7146 36.9858 23.6938 36.7358 23.6729 36.5484H23.8187C24.3604 35.2359 28.3393 32.8819 29.0684 32.8819C29.3184 32.8819 29.8183 33.1111 30.1308 33.2777C30.4225 33.9652 31.0058 34.5068 30.8599 35.3609ZM28.0268 44.8395V44.8603C27.631 45.0894 27.2352 45.3186 26.881 45.3186C26.7769 45.3186 26.6727 45.2978 26.5894 45.2561C26.9852 45.0894 27.5477 44.9853 28.0268 44.8395ZM26.0686 45.6519C25.9436 45.6519 25.7978 45.6311 25.6728 45.5686L26.3602 45.3394C26.6102 45.5269 26.3811 45.6519 26.0686 45.6519ZM22.6105 38.4024C22.4438 38.3399 22.3397 38.3816 22.2355 38.569L22.4438 38.694L22.6105 38.4024ZM23.5896 40.7564L23.4021 40.6522L23.1521 41.048C23.0688 41.1939 22.8396 41.5272 22.9438 41.7147L23.5896 40.7564ZM22.7563 42.0063H22.548L22.4022 42.298L22.5272 42.4646L22.7563 42.0063ZM30.2766 43.7562L29.6517 43.9645L29.4434 43.7145L30.0058 43.6312L30.2766 43.7562ZM28.2768 42.9646C27.9018 42.9646 27.5477 42.9229 27.381 42.8396C28.2143 42.6938 29.0892 42.5271 29.7142 42.4855C29.61 42.8396 28.9017 42.9646 28.2768 42.9646ZM24.3812 39.3398L24.5687 39.4648C25.0062 39.0274 25.0062 38.944 25.0062 38.8607C24.7978 38.8607 24.6104 39.069 24.3812 39.3398ZM24.4645 39.5898L24.2771 39.4648L24.1521 39.6731L24.2979 39.7981L24.4645 39.5898ZM22.3189 38.9024L22.1522 38.7149L21.8605 39.194L22.048 39.3398L22.3189 38.9024ZM40.8422 33.0278L40.8213 33.2777C41.5713 33.4652 41.9463 34.1319 41.8838 34.9235C41.9879 35.0068 42.0296 35.111 42.0296 35.2151C42.0296 35.6526 41.3213 36.2359 40.5297 36.4025C40.0922 35.8401 40.7797 35.8192 40.5714 35.5901C38.4673 35.5901 37.4049 36.0067 35.5925 37.2983V37.6108L36.4675 38.2357C37.3632 38.8607 38.2382 39.1523 38.8631 39.8398L39.0923 39.694C39.6964 40.3398 40.0506 41.1314 40.0089 41.673L39.8839 43.3396L39.5298 43.2562C38.9256 44.0895 37.7174 44.8395 36.4883 45.3811C35.8425 45.1103 35.4884 45.2144 35.5092 45.7769C34.5093 46.1519 33.6135 46.3394 33.2385 46.3394C32.9469 46.3394 32.4469 46.006 31.9469 45.5269C31.1137 45.3603 30.9262 44.8603 31.0303 44.4853C30.7595 44.1103 30.572 43.7562 30.572 43.527C30.572 43.0062 30.9262 42.6938 31.2595 42.4438C31.6136 42.7354 32.1553 43.4646 32.5302 43.4646C33.5093 43.4646 35.4467 42.9021 36.7799 41.7355V41.5272C36.2591 41.0272 35.8425 40.1106 35.4675 40.3606C34.9051 39.6106 34.6551 39.2982 34.2801 39.569C33.9885 39.319 33.426 38.819 33.3218 38.2357C33.1969 37.5691 32.9469 36.7983 32.9677 36.3609C33.0927 34.6526 36.4675 32.9444 39.1131 32.9444C39.6339 32.9444 40.3214 32.9653 40.8422 33.0278ZM41.3838 36.5275L41.1963 36.3817L41.7171 36.0276C41.7171 36.2775 41.6546 36.2984 41.3838 36.5275ZM37.1341 36.0692V36.0484C36.3841 36.2775 35.6134 36.59 35.5925 36.9233L37.1341 36.0692ZM35.2592 45.6519V45.4019L34.5301 45.7144L34.6343 45.8602L35.2592 45.6519ZM51.5633 33.0278L51.5425 33.2777C52.2924 33.4652 52.6674 34.1319 52.6049 34.9235C52.709 35.0068 52.7507 35.111 52.7507 35.2151C52.7507 35.6526 52.0424 36.2359 51.2508 36.4025C50.8133 35.8401 51.5008 35.8192 51.2925 35.5901C49.1884 35.5901 48.126 36.0067 46.3136 37.2983V37.6108L47.1886 38.2357C48.0844 38.8607 48.9593 39.1523 49.5843 39.8398L49.8134 39.694C50.4175 40.3398 50.7717 41.1314 50.73 41.673L50.605 43.3396L50.2509 43.2562C49.6467 44.0895 48.4385 44.8395 47.2094 45.3811C46.5636 45.1103 46.2095 45.2144 46.2303 45.7769C45.2304 46.1519 44.3346 46.3394 43.9596 46.3394C43.668 46.3394 43.168 46.006 42.6681 45.5269C41.8348 45.3603 41.6473 44.8603 41.7515 44.4853C41.4806 44.1103 41.2931 43.7562 41.2931 43.527C41.2931 43.0062 41.6473 42.6938 41.9806 42.4438C42.3347 42.7354 42.8764 43.4646 43.2513 43.4646C44.2304 43.4646 46.1678 42.9021 47.5011 41.7355V41.5272C46.9803 41.0272 46.5636 40.1106 46.1886 40.3606C45.6262 39.6106 45.3762 39.2982 45.0012 39.569C44.7096 39.319 44.1471 38.819 44.043 38.2357C43.918 37.5691 43.668 36.7983 43.6888 36.3609C43.8138 34.6526 47.1886 32.9444 49.8342 32.9444C50.355 32.9444 51.0425 32.9653 51.5633 33.0278ZM52.1049 36.5275L51.9174 36.3817L52.4382 36.0276C52.4382 36.2775 52.3757 36.2984 52.1049 36.5275ZM47.8552 36.0692V36.0484C47.1053 36.2775 46.3345 36.59 46.3136 36.9233L47.8552 36.0692ZM45.9803 45.6519V45.4019L45.2512 45.7144L45.3554 45.8602L45.9803 45.6519Z" fill="white"/>
<path d="M15.6148 36.9282H15.7758C15.9167 36.9282 16.0475 36.9383 16.1783 36.9584C16.3796 37.2603 16.7116 37.1396 16.9632 37.2402C17.8588 37.7534 18.5229 38.8401 18.5229 40.118C18.5229 41.8488 16.7318 43.7506 15.5746 43.7506C15.2627 43.7506 14.9708 43.5493 14.7595 43.3279C14.7897 43.2374 14.7797 43.1267 14.7193 43.016C14.5482 43.2173 14.1155 43.7606 13.8137 43.7606C13.3609 43.7606 12.9282 42.8248 12.9282 42.4022C12.9282 41.5871 13.5822 40.1482 14.2765 40.1482C14.9407 40.1482 14.991 40.6413 15.2224 40.9532L15.5042 40.762C15.796 40.9432 15.9368 41.2853 15.7859 41.5368C15.6652 41.7381 15.474 42.0299 15.2526 42.3318C15.1922 42.4525 15.2023 42.5934 15.3935 42.6437C15.4538 42.6638 15.5142 42.6638 15.5847 42.6638C16.289 42.6638 17.5569 41.3658 17.5569 39.9168C17.5569 38.659 16.8928 37.9848 15.796 37.9848C15.3935 37.9848 14.991 38.0754 14.5985 38.2565L14.508 38.1458C14.3268 38.5483 13.6627 38.6489 13.3206 38.9609L13.4615 39.0212C13.3307 39.142 13.1898 39.2124 13.069 39.3432C13.059 39.2929 13.0288 39.2325 12.9885 39.2023C12.6263 39.3231 12.2942 39.9872 12.3043 40.1583C12.2741 40.2086 12.1735 40.2891 12.1433 40.3394L12.0527 40.279C12.0024 40.3797 11.9219 40.5105 11.9521 40.6614C11.4993 41.2853 11.2477 42.2211 11.2477 42.8651C11.2477 43.5795 11.4993 44.2235 11.8213 44.6864C11.7408 44.7568 11.7609 44.9581 11.9018 45.0587L11.932 45.4612C11.6704 45.3505 11.4188 45.1895 11.1974 44.9782C11.1169 44.8675 11.0465 44.6763 11.0968 44.5958L11.0666 44.5556C10.7446 44.4549 10.5132 43.6499 10.4931 43.0965L10.3522 43.0261L10.2516 43.016C10.1912 42.8248 10.1811 42.6236 10.2415 42.4324C10.3119 42.372 10.3924 42.3519 10.4729 42.3116L10.4931 42.1708H10.2717C10.3119 41.9091 10.3824 41.6274 10.4729 41.3456L10.8352 41.2651C10.9861 40.8828 11.1773 40.4602 11.2276 40.1281L11.1572 40.0476C10.9459 40.3998 10.8553 40.7017 10.6742 40.7721C10.9761 39.9067 11.5396 39.0816 12.2339 38.5181C13.0288 38.0955 13.7332 37.7433 13.713 37.4112C13.9243 37.3005 14.1558 37.21 14.3872 37.1396L14.5482 37.2502C14.8199 37.2201 15.2627 37.1899 15.1822 36.9685L15.4237 36.9383C15.484 37.049 15.5746 37.1094 15.6652 37.1194C15.7658 37.1396 15.8664 37.0993 15.9469 37.0389L15.6551 37.0087L15.6148 36.9282ZM14.5482 41.3456L14.4778 41.1545C14.2765 41.3054 14.0149 41.6274 13.9847 41.7683C14.1759 41.6676 14.3671 41.4865 14.5482 41.3456ZM10.4528 42.4928L10.3522 42.523L10.3421 42.7443H10.4327L10.4528 42.4928ZM14.9809 36.9987L15.001 37.0691L14.7193 37.1496L14.6187 37.0691C14.7394 37.0389 14.8602 37.0188 14.9809 36.9987ZM13.4514 37.542L13.4414 37.6527L13.1395 37.854V37.7332L13.4514 37.542ZM13.0087 37.8238L13.0288 37.9345C12.9181 38.025 12.7672 38.1156 12.5357 38.2162V38.2062C12.6565 38.0955 12.8779 37.9244 13.0087 37.8238ZM10.7346 40.8727L10.644 41.1041H10.5534L10.6339 40.8727H10.7346ZM10.3924 43.5292L10.3119 43.5091L10.2717 43.1368L10.3622 43.1669L10.3924 43.5292Z" fill="white"/>
</svg>
