<svg xmlns="http://www.w3.org/2000/svg" width="32" height="32" fill="none"><circle cx="16" cy="16" r="16" fill="orange"/><path fill="#fff" d="M11 23a2 2 0 1 0 0-4 2 2 0 0 0 0 4ZM16.5 21.75a1.25 1.25 0 1 0 2.5 0h-2.5ZM10.25 13a1.25 1.25 0 1 0 0 2.5V13Zm0 2.5a6.25 6.25 0 0 1 6.25 6.25H19A8.75 8.75 0 0 0 10.25 13v2.5Z"/><path fill="#fff" d="M22.538 21.77a1.23 1.23 0 1 0 2.462 0h-2.462ZM10.231 7a1.23 1.23 0 1 0 0 2.462V7Zm0 2.462c6.797 0 12.307 5.51 12.307 12.307H25C25 13.612 18.388 7 10.23 7v2.462Z"/></svg>