<svg xmlns="http://www.w3.org/2000/svg" width="32" height="32" fill="none"><g clip-path="url(#a)"><path fill="#1DB954" d="M16 .053C7.19.053.049 7.194.049 16.003c0 8.81 7.142 15.951 15.95 15.951 8.811 0 15.952-7.14 15.952-15.95 0-8.81-7.14-15.95-15.951-15.95V.052Zm7.315 23.005a.99.99 0 0 1-1.004.464.994.994 0 0 1-.364-.134c-3.745-2.288-8.46-2.806-14.012-1.537a.994.994 0 0 1-.442-1.94c6.076-1.388 11.288-.79 15.492 1.78.469.287.617.899.33 1.367Zm1.952-4.343c-.36.585-1.125.77-1.71.41-4.288-2.636-10.824-3.4-15.895-1.86a1.245 1.245 0 0 1-1.552-.828 1.245 1.245 0 0 1 .83-1.551c5.792-1.758 12.994-.907 17.918 2.12.584.36.77 1.125.41 1.709Zm.168-4.523c-5.141-3.054-13.623-3.334-18.531-1.845a1.492 1.492 0 1 1-.866-2.855c5.634-1.71 15-1.38 20.92 2.134a1.49 1.49 0 1 1-1.522 2.566h-.001Z"/></g><defs><clipPath id="a"><path fill="#fff" d="M0 0h32v32H0z"/></clipPath></defs></svg>